# xmcd CD database file
#
# Track frame offsets:
#	150
#	42363
#	64772
#	77939
#	89982
#	105076
#	119666
#	134780
#	150181
#	163646
#	175413
#	193341
#	208024
#	221330
#	241510
#	255140
#	267134
#	282289
#
# Disc length: 3959 seconds
#
# Revision: 0
# Processed by: cddbd v1.5.2PL0 Copyright (c) Steve Scherf et al.
# Submitted via: CDex 1.51
#
DISCID=000f7512
DTITLE=Shorty Rogers - West Coast Jazz - Basie Eyes
DYEAR=2005
DGENRE=Jazz
TTITLE0=Short Snort (Short Stop)
TTITLE1=Buzzy
TTITLE2=Blues for Brando
TTITLE3=Chino
TTITLE4=The Wild One (Hot Blood)
TTITLE5=Windswept
TTITLE6=Topsy
TTITLE7=Basie Eyes
TTITLE8=It's Sand, Man
TTITLE9=Doggin' Around
TTITLE10=Jump For Me
TTITLE11=Over and Out
TTITLE12=Down for Double
TTITLE13=Swingin' the Blues
TTITLE14=H. and J.
TTITLE15=Tickle Toe
TTITLE16=Taps Miller
TTITLE17=Walk, Don't Run
EXTD=YEAR: 2005
EXTT0=
EXTT1=
EXTT2=
EXTT3=
EXTT4=
EXTT5=
EXTT6=
EXTT7=
EXTT8=
EXTT9=
EXTT10=
EXTT11=
EXTT12=
EXTT13=
EXTT14=
EXTT15=
EXTT16=
EXTT17=
PLAYORDER=
